<svg width="512" height="512" viewBox="0 0 512 512" xmlns="http://www.w3.org/2000/svg">
  <rect width="512" height="512" fill="#f39c12" />
  <g transform="translate(106, 106) scale(12.5)" stroke="#ffffff" stroke-width="2" stroke-linecap="round" stroke-linejoin="round" fill="none">
    <path d="M5 17c.7-1.1 1.7-2 2.8-2.6.9-.5 1.9-.9 2.9-1.2l-3-7a.7.7 0 0 1 .4-.9c.4-.2.9-.1 1.2.3l4 6h3.4c1.1 0 2.2.4 3 1.2.8.8 1.2 1.8 1.2 3v1"></path>
    <circle cx="18" cy="6" r="2"></circle>
    <path d="M7 17l-3 4"></path>
    <path d="M12 17l-3 4"></path>
  </g>
</svg>
